<svg width="19" height="11" viewBox="0 0 19 11" fill="none" xmlns="http://www.w3.org/2000/svg">
<path d="M2.35795 8H0.227273L2.62784 0.727273H5.3267L7.72727 8H5.59659L4.00568 2.73011H3.94886L2.35795 8ZM1.96023 5.13068H5.96591V6.60795H1.96023V5.13068ZM9.14918 10.0455V7.10511H9.12077C9.04502 7.28977 8.93612 7.45549 8.79407 7.60227C8.65439 7.74669 8.48394 7.86151 8.28271 7.94673C8.08384 8.02959 7.85657 8.07102 7.60089 8.07102C7.21263 8.07102 6.85515 7.96922 6.52844 7.76562C6.20411 7.56203 5.94369 7.25308 5.74719 6.83878C5.55307 6.42448 5.456 5.90246 5.456 5.27273C5.456 4.61458 5.5578 4.07955 5.7614 3.66761C5.96736 3.25568 6.23252 2.95384 6.55685 2.76207C6.88356 2.57031 7.22683 2.47443 7.58668 2.47443C7.85657 2.47443 8.09331 2.52178 8.29691 2.61648C8.50051 2.70881 8.67096 2.8331 8.80827 2.98935C8.94558 3.14323 9.04975 3.3125 9.12077 3.49716H9.16339V2.54545H11.1094V10.0455H9.14918ZM8.32532 6.56534C8.50524 6.56534 8.65913 6.51326 8.78697 6.40909C8.91718 6.30256 9.01661 6.15341 9.08526 5.96165C9.15629 5.76752 9.1918 5.53788 9.1918 5.27273C9.1918 5.00284 9.15629 4.77202 9.08526 4.58026C9.01661 4.38613 8.91718 4.23816 8.78697 4.13636C8.65913 4.0322 8.50524 3.98011 8.32532 3.98011C8.1454 3.98011 7.99151 4.0322 7.86367 4.13636C7.7382 4.23816 7.64113 4.38613 7.57248 4.58026C7.50619 4.77202 7.47305 5.00284 7.47305 5.27273C7.47305 5.54261 7.50619 5.77462 7.57248 5.96875C7.64113 6.16051 7.7382 6.30848 7.86367 6.41264C7.99151 6.51444 8.1454 6.56534 8.32532 6.56534ZM13.238 5.61364V2.54545H15.1982V8H13.3374V6.96307H13.2806C13.1622 7.31108 12.9551 7.58333 12.6592 7.77983C12.3632 7.97396 12.0117 8.07102 11.6045 8.07102C11.2233 8.07102 10.8895 7.98343 10.6031 7.80824C10.319 7.63305 10.0976 7.39157 9.93899 7.08381C9.78274 6.77604 9.70343 6.4233 9.70107 6.02557V2.54545H11.6613V5.61364C11.6637 5.88352 11.7323 6.09541 11.8673 6.24929C12.0046 6.40317 12.1963 6.48011 12.4425 6.48011C12.6059 6.48011 12.7468 6.44579 12.8651 6.37713C12.9859 6.30611 13.0782 6.20668 13.1421 6.07884C13.2084 5.94863 13.2404 5.79356 13.238 5.61364ZM15.3151 8.08523C14.9671 8.08523 14.6593 8.02841 14.3918 7.91477C14.1266 7.79877 13.9183 7.62358 13.7668 7.3892C13.6153 7.15483 13.5395 6.85653 13.5395 6.49432C13.5395 6.19602 13.5904 5.94152 13.6922 5.73082C13.794 5.51776 13.9361 5.34375 14.1184 5.20881C14.3007 5.07386 14.5125 4.97088 14.754 4.89986C14.9979 4.82884 15.2606 4.78267 15.5424 4.76136C15.8478 4.73769 16.0928 4.70928 16.2774 4.67614C16.4645 4.64062 16.5994 4.59209 16.6823 4.53054C16.7651 4.46662 16.8066 4.38258 16.8066 4.27841V4.2642C16.8066 4.12216 16.7521 4.01326 16.6432 3.9375C16.5343 3.86174 16.3946 3.82386 16.2242 3.82386C16.0372 3.82386 15.8845 3.86529 15.7661 3.94815C15.6501 4.02865 15.5802 4.15294 15.5566 4.32102H13.7526C13.7763 3.98958 13.8816 3.68419 14.0686 3.40483C14.258 3.12311 14.5338 2.8982 14.8961 2.73011C15.2583 2.55966 15.7105 2.47443 16.2526 2.47443C16.6432 2.47443 16.9936 2.5206 17.3037 2.61293C17.6139 2.70289 17.8778 2.82955 18.0956 2.9929C18.3134 3.15388 18.4792 3.34328 18.5928 3.56108C18.7088 3.77652 18.7668 4.01089 18.7668 4.2642V8H16.9344V7.23295H16.8918C16.7829 7.43655 16.6503 7.60109 16.4941 7.72656C16.3402 7.85204 16.1638 7.94318 15.9649 8C15.7685 8.05682 15.5518 8.08523 15.3151 8.08523ZM15.9543 6.84943C16.1034 6.84943 16.2431 6.81866 16.3733 6.7571C16.5059 6.69555 16.6136 6.60677 16.6965 6.49077C16.7793 6.37476 16.8208 6.2339 16.8208 6.06818V5.61364C16.7687 5.63494 16.7131 5.65507 16.6539 5.67401C16.5971 5.69295 16.5355 5.7107 16.4692 5.72727C16.4053 5.74384 16.3366 5.75923 16.2632 5.77344C16.1922 5.78764 16.1176 5.80066 16.0395 5.8125C15.888 5.83617 15.7637 5.87524 15.6667 5.92969C15.572 5.98177 15.5009 6.04688 15.4536 6.125C15.4086 6.20076 15.3861 6.28598 15.3861 6.38068C15.3861 6.5322 15.4394 6.6482 15.5459 6.72869C15.6524 6.80919 15.7886 6.84943 15.9543 6.84943Z" fill="url(#paint0_linear_2_63)"/>
<defs>
<linearGradient id="paint0_linear_2_63" x1="10" y1="-2" x2="10" y2="10" gradientUnits="userSpaceOnUse">
<stop/>
<stop offset="1" stop-color="#002D5B"/>
</linearGradient>
</defs>
</svg>
